<?xml version="1.0" encoding="UTF-8" standalone="no"?>
<svg width="149px" height="30px" viewBox="0 0 149 30" version="1.1" xmlns="http://www.w3.org/2000/svg" xmlns:xlink="http://www.w3.org/1999/xlink">
    <!-- Generator: Sketch 39.1 (31720) - http://www.bohemiancoding.com/sketch -->
    <title>Logo</title>
    <desc>Created with Sketch.</desc>
    <defs></defs>
    <g id="Login-1.0" stroke="none" stroke-width="1" fill="none" fill-rule="evenodd">
        <g id="dashboard-login" transform="translate(-645.000000, -50.000000)" fill="#262626">
            <g id="Logo" transform="translate(645.000000, 50.000000)">
                <g>
                    <path d="M9.44596562,6.50242718 C8.59047974,6.50242718 7.74492099,6.68009709 6.91045729,7.03456311 C6.07511766,7.38932039 5.24532555,7.92145631 4.42137294,8.63126214 L4.42137294,0.456699029 L0.230951991,0.456699029 L0.230951991,23.7154369 L4.42137294,23.7154369 L4.42137294,16.9750485 C4.42137294,15.1756311 4.4829796,14.0242718 4.60677688,13.5200971 C4.84327639,12.5434951 5.26926748,11.7725243 5.88241436,11.2066019 C6.49526926,10.6409709 7.22987762,10.3584466 8.0853635,10.3584466 C8.74464238,10.3584466 9.29881037,10.5285437 9.74757549,10.8675728 C10.1957567,11.2066019 10.5128412,11.7206796 10.6982451,12.4098058 C10.884233,13.0986408 10.976497,14.4148544 10.976497,16.3581553 L10.976497,23.7154369 L15.1359686,23.7154369 L15.1359686,12.6259223 C15.1359686,10.6928155 14.6460351,9.22747573 13.6670439,8.22961165 C12.523087,7.07825243 11.1157689,6.50242718 9.44596562,6.50242718" id="Fill-1"></path>
                    <path d="M29.2044778,18.8566019 C28.3262179,19.7714563 27.2266411,20.2287379 25.9048716,20.2287379 C24.5842701,20.2287379 23.4914087,19.7772816 22.6303753,18.8720388 C21.7675901,17.9676699 21.3369274,16.7848544 21.3369274,15.324466 C21.3369274,13.9057282 21.7728456,12.7412621 22.64585,11.831068 C23.5176865,10.9214563 24.6096719,10.4665049 25.9215142,10.4665049 C27.263138,10.4665049 28.3656345,10.9165049 29.2272518,11.8159223 C30.0894531,12.7156311 30.5206997,13.8853398 30.5206997,15.324466 C30.5206997,16.764466 30.0809858,17.9420388 29.2044778,18.8566019 L29.2044778,18.8566019 Z M30.3271205,7.69048544 C28.9306055,6.89854369 27.4389067,6.50242718 25.8511483,6.50242718 C23.6557905,6.50242718 21.7129908,7.26378641 20.0227493,8.78533981 C18.0951323,10.5329126 17.1313238,12.7179612 17.1313238,15.3399029 C17.1313238,17.7873786 17.9838899,19.8669903 19.6901901,21.5787379 C21.3959063,23.2904854 23.4549119,24.1467961 25.866623,24.1467961 C27.5060609,24.1467961 29.005935,23.758835 30.3659531,22.9823301 C31.7265553,22.2061165 32.8010222,21.1293204 33.5896459,19.7516505 C34.3782695,18.3736893 34.7718514,16.8923301 34.7718514,15.3093204 C34.7718514,13.7356311 34.3806053,12.2708738 33.5978211,10.9135922 C32.8135771,9.55631068 31.7245114,8.48213592 30.3271205,7.69048544 L30.3271205,7.69048544 Z" id="Fill-2"></path>
                    <polygon id="Fill-3" points="37.1231237 23.7154369 41.344202 23.7154369 41.344202 0.456699029 37.1231237 0.456699029"></polygon>
                    <polygon id="Fill-4" points="44.71505 23.7154369 48.9349604 23.7154369 48.9349604 0.456699029 44.71505 0.456699029"></polygon>
                    <polyline id="Fill-5" points="59.5856136 17.4634951 55.2170881 6.93436893 50.9028699 6.93436893 57.2974079 22.463301 53.8386755 29.8534951 58.1984418 29.8534951 68.7334731 6.93436893 64.4078678 6.93436893 59.5856136 17.4634951"></polyline>
                    <polyline id="Fill-6" points="84.2913452 16.3735922 80.7172828 6.93436893 78.1905337 6.93436893 74.551069 16.481068 71.0873731 6.93436893 68.8161019 11.8767961 73.0982029 23.7154369 75.7417419 23.7154369 79.4366817 14.1527184 83.023591 23.7154369 85.6986632 23.7154369 91.8368474 6.93436893 87.6779597 6.93436893 84.2913452 16.3735922"></polyline>
                    <path d="M104.249276,18.9107767 C103.376272,19.831165 102.277279,20.2913592 100.952006,20.2913592 C99.667901,20.2913592 98.5873026,19.8238835 97.7084587,18.8874757 C96.8296149,17.9516505 96.3910689,16.7592233 96.3910689,15.3093204 C96.3910689,13.8699029 96.8228994,12.6902913 97.6851007,11.7696117 C98.5484699,10.8492233 99.632572,10.3890291 100.937115,10.3890291 C102.272315,10.3890291 103.376272,10.8413592 104.249276,11.7468932 C105.12228,12.6515534 105.559075,13.8340777 105.559075,15.2938835 C105.559075,16.7848544 105.12228,17.9909709 104.249276,18.9107767 L104.249276,18.9107767 Z M105.374547,6.93436893 L105.374547,8.78533981 C104.621836,8.02427184 103.804015,7.45368932 102.917871,7.07300971 C102.033188,6.69320388 101.085438,6.50242718 100.076666,6.50242718 C97.8845195,6.50242718 96.020553,7.33019417 94.4865179,8.98631068 C92.9530667,10.6409709 92.1860492,12.7645631 92.1860492,15.3553398 C92.1860492,17.8543689 92.9781765,19.9438835 94.5638912,21.6253398 C96.1487298,23.3059223 98.028463,24.1467961 100.200463,24.1467961 C101.168651,24.1467961 102.067057,23.9749515 102.895389,23.6300971 C103.72343,23.2858252 104.550302,22.7228155 105.374547,21.9416505 L105.374547,23.7154369 L109.595041,23.7154369 L109.595041,6.93436893 L105.374547,6.93436893 L105.374547,6.93436893 Z" id="Fill-7"></path>
                    <path d="M123.886911,18.6952427 C123.013906,19.6156311 121.91433,20.0758252 120.589056,20.0758252 C119.305244,20.0758252 118.224061,19.607767 117.345509,18.6719417 C116.467249,17.7361165 116.02812,16.5431068 116.02812,15.0937864 C116.02812,13.6543689 116.460242,12.474466 117.322735,11.5540777 C118.185521,10.6336893 119.269331,10.1734951 120.57475,10.1734951 C121.909074,10.1734951 123.013906,10.6258252 123.886911,11.5307767 C124.759331,12.4360194 125.196709,13.6179612 125.196709,15.0783495 C125.196709,16.5693204 124.759331,17.7754369 123.886911,18.6952427 L123.886911,18.6952427 Z M125.011597,8.56980583 C124.259178,7.80873786 123.441065,7.23815534 122.555214,6.85747573 C121.670239,6.47737864 120.723073,6.2868932 119.714008,6.2868932 C117.52157,6.2868932 115.657896,7.11466019 114.123569,8.7707767 C112.590701,10.4254369 111.8231,12.5490291 111.8231,15.1398058 C111.8231,17.638835 112.615519,19.7283495 114.200942,21.4098058 C115.786364,23.0903883 117.665222,23.9309709 119.837222,23.9309709 C120.805702,23.9309709 121.703816,23.7591262 122.533024,23.4145631 C123.361064,23.0702913 124.187937,22.5072816 125.011597,21.725534 L125.011597,23.4999029 L129.232092,23.4999029 L129.232092,6.71883495 L125.011597,6.71883495 L125.011597,8.56980583 L125.011597,8.56980583 Z" id="Fill-8"></path>
                    <path d="M143.523085,18.6952427 C142.650665,19.6156311 141.551088,20.0758252 140.225815,20.0758252 C138.942294,20.0758252 137.861112,19.607767 136.982268,18.6719417 C136.103424,17.7361165 135.664878,16.5431068 135.664878,15.0937864 C135.664878,13.6543689 136.096709,12.474466 136.95891,11.5540777 C137.822279,10.6336893 138.906381,10.1734951 140.211216,10.1734951 C141.546125,10.1734951 142.650665,10.6258252 143.523085,11.5307767 C144.396966,12.4360194 144.83376,13.6179612 144.83376,15.0783495 C144.83376,16.5693204 144.396966,17.7754369 143.523085,18.6952427 L143.523085,18.6952427 Z M144.648356,0.240873786 L144.648356,8.56980583 C143.896229,7.80873786 143.077824,7.23815534 142.192265,6.85747573 C141.307289,6.47737864 140.359831,6.2868932 139.350475,6.2868932 C137.158621,6.2868932 135.294362,7.11466019 133.760327,8.7707767 C132.226876,10.4254369 131.460443,12.5490291 131.460443,15.1398058 C131.460443,17.638835 132.25257,19.7283495 133.837701,21.4098058 C135.422539,23.0903883 137.302272,23.9309709 139.474272,23.9309709 C140.442752,23.9309709 141.340866,23.7591262 142.170075,23.4145631 C142.998115,23.0702913 143.824403,22.5072816 144.648356,21.725534 L144.648356,23.4999029 L148.869434,23.4999029 L148.869434,0.240873786 L144.648356,0.240873786 L144.648356,0.240873786 Z" id="Fill-9"></path>
                </g>
            </g>
        </g>
    </g>
</svg>